# xmcd
#
# Track frame offsets:
# 150
# 15388
# 34852
# 51930
# 70322
# 89183
# 101908
# 118030
# 132563
# 150250
# 164236
#
# Disc length: 2356 seconds
#
# Revision: 0
# Processed by: cddbd v1.5.2PL0 Copyright (c) Steve Scherf et al.
# Submitted via: Audion 3.0.2 (http://www.panic.com/audion/)
#
DISCID=9d09320b
DTITLE=Bo Allen - Scarekrow
DYEAR=1900
DGENRE=
TTITLE0=Shack on Hillbilly Run
TTITLE1=I Don't Want to Try Anymore
TTITLE2=You Can Call That Love
TTITLE3=I am Living Proof
TTITLE4=Love Don't Live Here Anymore
TTITLE5=Love Can Make You do That
TTITLE6=I Can't See What Everyone Else See's
TTITLE7=Tears in Beer
TTITLE8=Scarekrow
TTITLE9=Hardknocks
TTITLE10=Buckwild
EXTD=
EXTT0=
EXTT1=
EXTT2=
EXTT3=
EXTT4=
EXTT5=
EXTT6=
EXTT7=
EXTT8=
EXTT9=
EXTT10=
PLAYORDER=
